<mxfile host="app.diagrams.net" modified="2024-08-12T17:17:50.765Z" agent="Mozilla/5.0 (Windows NT 10.0; Win64; x64) AppleWebKit/537.36 (KHTML, like Gecko) Chrome/126.0.0.0 Safari/537.36 Edg/126.0.0.0" version="24.2.8" etag="mkGHtlrZIY36GV1tL8m0" type="github">
  <diagram name="Page-1" id="8JsX9kJX0IKKpNKL3Epg">
    <mxGraphModel>
      <root>
        <mxCell id="0" />
        <mxCell id="1" parent="0" />
      </root>
    </mxGraphModel>
  </diagram>
</mxfile>
